<!DOCTYPE svg PUBLIC "-//W3C//DTD SVG 1.1//EN" "http://www.w3.org/Graphics/SVG/1.1/DTD/svg11.dtd">
<!-- Uploaded to: SVG Repo, www.svgrepo.com, Transformed by: SVG Repo Mixer Tools -->
<svg width="800px" height="800px" viewBox="-2.4 -2.4 28.80 28.80" fill="none" xmlns="http://www.w3.org/2000/svg" transform="matrix(1, 0, 0, 1, 0, 0)">
<g id="SVGRepo_bgCarrier" stroke-width="0">
<path transform="translate(-2.4, -2.4), scale(0.8999999999999999)" d="M16,31.19672183053834C18.235008695286666,31.440642188913298,19.479453460672417,28.40469577966834,21.532764357198495,27.488903569915465C23.66358627193898,26.538540859041273,26.684507539210223,27.50169883753088,28.221113386785532,25.746012708475973C29.73828363853072,24.012533188918677,28.707750634209507,21.25143806387121,28.992608748608717,18.965478162174314C29.250518738479624,16.895774456048873,30.19568497157086,14.896850814987122,29.82890393770314,12.84364291825101C29.45698546152351,10.761676072305878,28.078132684200682,9.062784694447522,26.908803412652546,7.300519573860042C25.658953573021613,5.416904041481077,24.807578174251727,2.90295445941248,22.69649673168152,2.094581254586604C20.560702732399143,1.276745142140955,18.286875692842713,3.149244353521238,16,3.123331428638526C13.680308018828745,3.0970466575653774,11.313206443488829,0.9212095953325359,9.230019491641343,1.9419906200155825C7.142284794538689,2.9650000822651426,7.290934044105391,6.091516129643952,5.998569714187365,8.024125496301885C4.82652133012412,9.776813676236872,2.5532048033431773,10.771512463409339,1.9705356293138934,12.797866308201781C1.3859817710105662,14.83077453650231,2.322833055217519,16.95263483269508,2.84154726143257,19.00333097064921C3.351433842229648,21.01912778035082,3.4518883707980788,23.383964319787452,4.9994927219820955,24.772611818426483C6.562600675706616,26.175170520449825,9.206248657822679,25.282489792493035,11.01976947430553,26.341555246467255C13.047215247876817,27.525549253638165,13.666013144258649,30.94199937174189,16,31.19672183053834" fill="#dd6464" strokewidth="0"/>
</g>
<g id="SVGRepo_tracerCarrier" stroke-linecap="round" stroke-linejoin="round"/>
<g id="SVGRepo_iconCarrier"> <path fill-rule="evenodd" clip-rule="evenodd" d="M6.75 6L7.5 5.25H16.5L17.25 6V19.3162L12 16.2051L6.75 19.3162V6ZM8.25 6.75V16.6838L12 14.4615L15.75 16.6838V6.75H8.25Z" fill="#1e1e20"/> </g>
</svg>